<?xml version="1.0" encoding="utf-8"?>
<!-- Generator: Adobe Illustrator 26.1.0, SVG Export Plug-In . SVG Version: 6.00 Build 0)  -->
<svg version="1.1" id="Layer_1" xmlns="http://www.w3.org/2000/svg" xmlns:xlink="http://www.w3.org/1999/xlink" x="0px" y="0px"
	 viewBox="0 0 653.33 653.33" style="enable-background:new 0 0 653.33 653.33;" xml:space="preserve">
<style type="text/css">
	.st0{fill-rule:evenodd;clip-rule:evenodd;fill:#FFFFFF;}
</style>
<path class="st0" d="M361.33,18.19c0,7.14-10.7,7.14-10.7,0S361.33,11.05,361.33,18.19"/>
<path class="st0" d="M380.59,18.19c0,7.14-10.7,7.14-10.7,0S380.59,11.05,380.59,18.19"/>
<path class="st0" d="M380.59,37.44c0,7.14-10.7,7.14-10.7,0S380.59,30.31,380.59,37.44"/>
<path class="st0" d="M399.87,37.44c0,7.14-10.7,7.14-10.7,0S399.87,30.31,399.87,37.44"/>
<path class="st0" d="M380.59,56.71c0,7.14-10.7,7.14-10.7,0S380.59,49.57,380.59,56.71"/>
<path class="st0" d="M399.87,56.71c0,7.14-10.7,7.14-10.7,0S399.87,49.57,399.87,56.71"/>
<path class="st0" d="M399.87,75.97c0,7.14-10.7,7.14-10.7,0S399.87,68.83,399.87,75.97"/>
<path class="st0" d="M419.12,75.97c0,7.14-10.7,7.14-10.7,0S419.12,68.83,419.12,75.97"/>
<path class="st0" d="M419.12,95.25c0,7.14-10.7,7.14-10.7,0C408.42,88.11,419.12,88.11,419.12,95.25"/>
<path class="st0" d="M438.39,114.51c0,7.14-10.7,7.14-10.7,0S438.39,107.37,438.39,114.51"/>
<path class="st0" d="M457.66,114.51c0,7.14-10.7,7.14-10.7,0S457.66,107.37,457.66,114.51"/>
<path class="st0" d="M419.12,133.77c0,7.14-10.7,7.14-10.7,0S419.12,126.64,419.12,133.77"/>
<path class="st0" d="M438.39,133.77c0,7.14-10.7,7.14-10.7,0S438.39,126.64,438.39,133.77"/>
<path class="st0" d="M457.66,133.77c0,7.14-10.7,7.14-10.7,0S457.66,126.64,457.66,133.77"/>
<path class="st0" d="M438.39,153.05c0,7.14-10.7,7.14-10.7,0C427.68,145.91,438.39,145.91,438.39,153.05"/>
<path class="st0" d="M457.66,153.05c0,7.14-10.7,7.14-10.7,0C446.96,145.91,457.66,145.91,457.66,153.05"/>
<path class="st0" d="M476.93,153.05c0,7.14-10.7,7.14-10.7,0C466.22,145.91,476.93,145.91,476.93,153.05"/>
<path class="st0" d="M534.72,153.05c0,7.14-10.7,7.14-10.7,0C524.02,145.91,534.72,145.91,534.72,153.05"/>
<path class="st0" d="M554,153.05c0,7.14-10.7,7.14-10.7,0C543.29,145.91,554,145.91,554,153.05"/>
<path class="st0" d="M438.39,172.31c0,7.14-10.7,7.14-10.7,0C427.68,165.17,438.39,165.17,438.39,172.31"/>
<path class="st0" d="M457.66,172.31c0,7.14-10.7,7.14-10.7,0C446.96,165.17,457.66,165.17,457.66,172.31"/>
<path class="st0" d="M476.93,172.31c0,7.14-10.7,7.14-10.7,0C466.22,165.17,476.93,165.17,476.93,172.31"/>
<path class="st0" d="M496.19,172.31c0,7.14-10.7,7.14-10.7,0C485.49,165.17,496.19,165.17,496.19,172.31"/>
<path class="st0" d="M515.46,172.31c0,7.14-10.7,7.14-10.7,0C504.75,165.17,515.46,165.17,515.46,172.31"/>
<path class="st0" d="M534.72,172.31c0,7.14-10.7,7.14-10.7,0C524.02,165.17,534.72,165.17,534.72,172.31"/>
<path class="st0" d="M554,172.31c0,7.14-10.7,7.14-10.7,0C543.29,165.17,554,165.17,554,172.31"/>
<path class="st0" d="M419.12,191.58c0,7.14-10.7,7.14-10.7,0C408.42,184.44,419.12,184.44,419.12,191.58"/>
<path class="st0" d="M438.39,191.58c0,7.14-10.7,7.14-10.7,0C427.68,184.44,438.39,184.44,438.39,191.58"/>
<path class="st0" d="M457.66,191.58c0,7.14-10.7,7.14-10.7,0C446.96,184.44,457.66,184.44,457.66,191.58"/>
<path class="st0" d="M476.93,191.58c0,7.14-10.7,7.14-10.7,0C466.22,184.44,476.93,184.44,476.93,191.58"/>
<path class="st0" d="M496.19,191.58c0,7.14-10.7,7.14-10.7,0C485.49,184.44,496.19,184.44,496.19,191.58"/>
<path class="st0" d="M515.46,191.58c0,7.14-10.7,7.14-10.7,0C504.75,184.44,515.46,184.44,515.46,191.58"/>
<path class="st0" d="M534.72,191.58c0,7.14-10.7,7.14-10.7,0C524.02,184.44,534.72,184.44,534.72,191.58"/>
<path class="st0" d="M554,191.58c0,7.14-10.7,7.14-10.7,0C543.29,184.44,554,184.44,554,191.58"/>
<path class="st0" d="M399.87,210.84c0,7.14-10.7,7.14-10.7,0C389.16,203.71,399.87,203.71,399.87,210.84"/>
<path class="st0" d="M419.12,210.84c0,7.14-10.7,7.14-10.7,0C408.42,203.71,419.12,203.71,419.12,210.84"/>
<path class="st0" d="M438.39,210.84c0,7.14-10.7,7.14-10.7,0C427.68,203.71,438.39,203.71,438.39,210.84"/>
<path class="st0" d="M457.66,210.84c0,7.14-10.7,7.14-10.7,0C446.96,203.71,457.66,203.71,457.66,210.84"/>
<path class="st0" d="M476.93,210.84c0,7.14-10.7,7.14-10.7,0C466.22,203.71,476.93,203.71,476.93,210.84"/>
<path class="st0" d="M496.19,210.84c0,7.14-10.7,7.14-10.7,0C485.49,203.71,496.19,203.71,496.19,210.84"/>
<path class="st0" d="M515.46,210.84c0,7.14-10.7,7.14-10.7,0C504.75,203.71,515.46,203.71,515.46,210.84"/>
<path class="st0" d="M534.72,210.84c0,7.14-10.7,7.14-10.7,0C524.02,203.71,534.72,203.71,534.72,210.84"/>
<path class="st0" d="M399.87,230.11c0,7.14-10.7,7.14-10.7,0C389.16,222.97,399.87,222.97,399.87,230.11"/>
<path class="st0" d="M419.12,230.11c0,7.14-10.7,7.14-10.7,0C408.42,222.97,419.12,222.97,419.12,230.11"/>
<path class="st0" d="M438.39,230.11c0,7.14-10.7,7.14-10.7,0C427.68,222.97,438.39,222.97,438.39,230.11"/>
<path class="st0" d="M457.66,230.11c0,7.14-10.7,7.14-10.7,0C446.96,222.97,457.66,222.97,457.66,230.11"/>
<path class="st0" d="M476.93,230.11c0,7.14-10.7,7.14-10.7,0C466.22,222.97,476.93,222.97,476.93,230.11"/>
<path class="st0" d="M496.19,230.11c0,7.14-10.7,7.14-10.7,0C485.49,222.97,496.19,222.97,496.19,230.11"/>
<path class="st0" d="M419.12,249.37c0,7.14-10.7,7.14-10.7,0C408.42,242.24,419.12,242.24,419.12,249.37"/>
<path class="st0" d="M438.39,249.37c0,7.14-10.7,7.14-10.7,0C427.68,242.24,438.39,242.24,438.39,249.37"/>
<path class="st0" d="M457.66,249.37c0,7.14-10.7,7.14-10.7,0C446.96,242.24,457.66,242.24,457.66,249.37"/>
<path class="st0" d="M476.93,249.37c0,7.14-10.7,7.14-10.7,0C466.22,242.24,476.93,242.24,476.93,249.37"/>
<path class="st0" d="M496.19,249.37c0,7.14-10.7,7.14-10.7,0C485.49,242.24,496.19,242.24,496.19,249.37"/>
<path class="st0" d="M438.39,268.64c0,7.14-10.7,7.14-10.7,0C427.68,261.5,438.39,261.5,438.39,268.64"/>
<path class="st0" d="M457.66,268.64c0,7.14-10.7,7.14-10.7,0C446.96,261.5,457.66,261.5,457.66,268.64"/>
<path class="st0" d="M476.93,268.64c0,7.14-10.7,7.14-10.7,0C466.22,261.5,476.93,261.5,476.93,268.64"/>
<path class="st0" d="M496.19,268.64c0,7.14-10.7,7.14-10.7,0C485.49,261.5,496.19,261.5,496.19,268.64"/>
<path class="st0" d="M342.06,287.9c0,7.14-10.7,7.14-10.7,0S342.06,280.77,342.06,287.9"/>
<path class="st0" d="M438.39,287.9c0,7.14-10.7,7.14-10.7,0S438.39,280.77,438.39,287.9"/>
<path class="st0" d="M457.66,287.9c0,7.14-10.7,7.14-10.7,0S457.66,280.77,457.66,287.9"/>
<path class="st0" d="M476.93,287.9c0,7.14-10.7,7.14-10.7,0S476.93,280.77,476.93,287.9"/>
<path class="st0" d="M322.8,307.17c0,7.14-10.7,7.14-10.7,0C312.09,300.03,322.8,300.03,322.8,307.17"/>
<path class="st0" d="M342.06,307.17c0,7.14-10.7,7.14-10.7,0C331.36,300.03,342.06,300.03,342.06,307.17"/>
<path class="st0" d="M438.39,307.17c0,7.14-10.7,7.14-10.7,0C427.68,300.03,438.39,300.03,438.39,307.17"/>
<path class="st0" d="M457.66,307.17c0,7.14-10.7,7.14-10.7,0C446.96,300.03,457.66,300.03,457.66,307.17"/>
<path class="st0" d="M476.93,307.17c0,7.14-10.7,7.14-10.7,0C466.22,300.03,476.93,300.03,476.93,307.17"/>
<path class="st0" d="M322.8,326.44c0,7.14-10.7,7.14-10.7,0C312.09,319.31,322.8,319.31,322.8,326.44"/>
<path class="st0" d="M342.06,326.44c0,7.14-10.7,7.14-10.7,0C331.36,319.31,342.06,319.31,342.06,326.44"/>
<path class="st0" d="M361.33,326.44c0,7.14-10.7,7.14-10.7,0C350.62,319.31,361.33,319.31,361.33,326.44"/>
<path class="st0" d="M380.59,326.44c0,7.14-10.7,7.14-10.7,0C369.89,319.31,380.59,319.31,380.59,326.44"/>
<path class="st0" d="M399.87,326.44c0,7.14-10.7,7.14-10.7,0C389.16,319.31,399.87,319.31,399.87,326.44"/>
<path class="st0" d="M419.12,326.44c0,7.14-10.7,7.14-10.7,0C408.42,319.31,419.12,319.31,419.12,326.44"/>
<path class="st0" d="M438.39,326.44c0,7.14-10.7,7.14-10.7,0C427.68,319.31,438.39,319.31,438.39,326.44"/>
<path class="st0" d="M457.66,326.44c0,7.14-10.7,7.14-10.7,0C446.96,319.31,457.66,319.31,457.66,326.44"/>
<path class="st0" d="M322.8,345.71c0,7.14-10.7,7.14-10.7,0C312.09,338.57,322.8,338.57,322.8,345.71"/>
<path class="st0" d="M342.06,345.71c0,7.14-10.7,7.14-10.7,0C331.36,338.57,342.06,338.57,342.06,345.71"/>
<path class="st0" d="M361.33,345.71c0,7.14-10.7,7.14-10.7,0C350.62,338.57,361.33,338.57,361.33,345.71"/>
<path class="st0" d="M380.59,345.71c0,7.14-10.7,7.14-10.7,0C369.89,338.57,380.59,338.57,380.59,345.71"/>
<path class="st0" d="M399.87,345.71c0,7.14-10.7,7.14-10.7,0C389.16,338.57,399.87,338.57,399.87,345.71"/>
<path class="st0" d="M303.52,364.97c0,7.14-10.7,7.14-10.7,0S303.52,357.84,303.52,364.97"/>
<path class="st0" d="M322.8,364.97c0,7.14-10.7,7.14-10.7,0S322.8,357.84,322.8,364.97"/>
<path class="st0" d="M342.06,364.97c0,7.14-10.7,7.14-10.7,0S342.06,357.84,342.06,364.97"/>
<path class="st0" d="M361.33,364.97c0,7.14-10.7,7.14-10.7,0S361.33,357.84,361.33,364.97"/>
<path class="st0" d="M380.59,364.97c0,7.14-10.7,7.14-10.7,0S380.59,357.84,380.59,364.97"/>
<path class="st0" d="M284.26,384.25c0,7.14-10.7,7.14-10.7,0S284.26,377.11,284.26,384.25"/>
<path class="st0" d="M303.52,384.25c0,7.14-10.7,7.14-10.7,0S303.52,377.11,303.52,384.25"/>
<path class="st0" d="M322.8,384.25c0,7.14-10.7,7.14-10.7,0S322.8,377.11,322.8,384.25"/>
<path class="st0" d="M342.06,384.25c0,7.14-10.7,7.14-10.7,0S342.06,377.11,342.06,384.25"/>
<path class="st0" d="M361.33,384.25c0,7.14-10.7,7.14-10.7,0S361.33,377.11,361.33,384.25"/>
<path class="st0" d="M380.59,384.25c0,7.14-10.7,7.14-10.7,0S380.59,377.11,380.59,384.25"/>
<path class="st0" d="M284.26,403.52c0,7.14-10.7,7.14-10.7,0C273.55,396.38,284.26,396.38,284.26,403.52"/>
<path class="st0" d="M303.52,403.52c0,7.14-10.7,7.14-10.7,0C292.82,396.38,303.52,396.38,303.52,403.52"/>
<path class="st0" d="M322.8,403.52c0,7.14-10.7,7.14-10.7,0C312.09,396.38,322.8,396.38,322.8,403.52"/>
<path class="st0" d="M342.06,403.52c0,7.14-10.7,7.14-10.7,0C331.36,396.38,342.06,396.38,342.06,403.52"/>
<path class="st0" d="M361.33,403.52c0,7.14-10.7,7.14-10.7,0C350.62,396.38,361.33,396.38,361.33,403.52"/>
<path class="st0" d="M245.71,422.77c0,7.14-10.7,7.14-10.7,0S245.71,415.63,245.71,422.77"/>
<path class="st0" d="M264.99,422.77c0,7.14-10.7,7.14-10.7,0S264.99,415.63,264.99,422.77"/>
<path class="st0" d="M284.26,422.77c0,7.14-10.7,7.14-10.7,0S284.26,415.63,284.26,422.77"/>
<path class="st0" d="M303.52,422.77c0,7.14-10.7,7.14-10.7,0S303.52,415.63,303.52,422.77"/>
<path class="st0" d="M322.8,422.77c0,7.14-10.7,7.14-10.7,0S322.8,415.63,322.8,422.77"/>
<path class="st0" d="M342.06,422.77c0,7.14-10.7,7.14-10.7,0S342.06,415.63,342.06,422.77"/>
<path class="st0" d="M226.46,442.03c0,7.14-10.7,7.14-10.7,0S226.46,434.9,226.46,442.03"/>
<path class="st0" d="M245.71,442.03c0,7.14-10.7,7.14-10.7,0S245.71,434.9,245.71,442.03"/>
<path class="st0" d="M264.99,442.03c0,7.14-10.7,7.14-10.7,0S264.99,434.9,264.99,442.03"/>
<path class="st0" d="M284.26,442.03c0,7.14-10.7,7.14-10.7,0S284.26,434.9,284.26,442.03"/>
<path class="st0" d="M303.52,442.03c0,7.14-10.7,7.14-10.7,0S303.52,434.9,303.52,442.03"/>
<path class="st0" d="M322.8,442.03c0,7.14-10.7,7.14-10.7,0S322.8,434.9,322.8,442.03"/>
<path class="st0" d="M342.06,442.03c0,7.14-10.7,7.14-10.7,0S342.06,434.9,342.06,442.03"/>
<path class="st0" d="M207.2,461.31c0,7.14-10.7,7.14-10.7,0C196.49,454.17,207.2,454.17,207.2,461.31"/>
<path class="st0" d="M226.46,461.31c0,7.14-10.7,7.14-10.7,0C215.76,454.17,226.46,454.17,226.46,461.31"/>
<path class="st0" d="M245.71,461.31c0,7.14-10.7,7.14-10.7,0C235.01,454.17,245.71,454.17,245.71,461.31"/>
<path class="st0" d="M264.99,461.31c0,7.14-10.7,7.14-10.7,0C254.29,454.17,264.99,454.17,264.99,461.31"/>
<path class="st0" d="M284.26,461.31c0,7.14-10.7,7.14-10.7,0C273.55,454.17,284.26,454.17,284.26,461.31"/>
<path class="st0" d="M303.52,461.31c0,7.14-10.7,7.14-10.7,0C292.82,454.17,303.52,454.17,303.52,461.31"/>
<path class="st0" d="M322.8,461.31c0,7.14-10.7,7.14-10.7,0C312.09,454.17,322.8,454.17,322.8,461.31"/>
<path class="st0" d="M168.67,480.57c0,7.14-10.7,7.14-10.7,0C157.96,473.44,168.67,473.44,168.67,480.57"/>
<path class="st0" d="M187.93,480.57c0,7.14-10.7,7.14-10.7,0C177.23,473.44,187.93,473.44,187.93,480.57"/>
<path class="st0" d="M207.2,480.57c0,7.14-10.7,7.14-10.7,0C196.49,473.44,207.2,473.44,207.2,480.57"/>
<path class="st0" d="M226.46,480.57c0,7.14-10.7,7.14-10.7,0C215.76,473.44,226.46,473.44,226.46,480.57"/>
<path class="st0" d="M245.71,480.57c0,7.14-10.7,7.14-10.7,0C235.01,473.44,245.71,473.44,245.71,480.57"/>
<path class="st0" d="M264.99,480.57c0,7.14-10.7,7.14-10.7,0C254.29,473.44,264.99,473.44,264.99,480.57"/>
<path class="st0" d="M284.26,480.57c0,7.14-10.7,7.14-10.7,0C273.55,473.44,284.26,473.44,284.26,480.57"/>
<path class="st0" d="M149.4,499.84c0,7.14-10.7,7.14-10.7,0S149.4,492.7,149.4,499.84"/>
<path class="st0" d="M168.67,499.84c0,7.14-10.7,7.14-10.7,0S168.67,492.7,168.67,499.84"/>
<path class="st0" d="M187.93,499.84c0,7.14-10.7,7.14-10.7,0S187.93,492.7,187.93,499.84"/>
<path class="st0" d="M207.2,499.84c0,7.14-10.7,7.14-10.7,0S207.2,492.7,207.2,499.84"/>
<path class="st0" d="M226.46,499.84c0,7.14-10.7,7.14-10.7,0S226.46,492.7,226.46,499.84"/>
<path class="st0" d="M245.71,499.84c0,7.14-10.7,7.14-10.7,0S245.71,492.7,245.71,499.84"/>
<path class="st0" d="M264.99,499.84c0,7.14-10.7,7.14-10.7,0S264.99,492.7,264.99,499.84"/>
<path class="st0" d="M284.26,499.84c0,7.14-10.7,7.14-10.7,0S284.26,492.7,284.26,499.84"/>
<path class="st0" d="M130.13,519.09c0,7.14-10.7,7.14-10.7,0C119.42,511.95,130.13,511.95,130.13,519.09"/>
<path class="st0" d="M149.4,519.09c0,7.14-10.7,7.14-10.7,0C138.7,511.95,149.4,511.95,149.4,519.09"/>
<path class="st0" d="M168.67,519.09c0,7.14-10.7,7.14-10.7,0C157.96,511.95,168.67,511.95,168.67,519.09"/>
<path class="st0" d="M187.93,519.09c0,7.14-10.7,7.14-10.7,0C177.23,511.95,187.93,511.95,187.93,519.09"/>
<path class="st0" d="M207.2,519.09c0,7.14-10.7,7.14-10.7,0C196.49,511.95,207.2,511.95,207.2,519.09"/>
<path class="st0" d="M226.46,519.09c0,7.14-10.7,7.14-10.7,0C215.76,511.95,226.46,511.95,226.46,519.09"/>
<path class="st0" d="M245.71,519.09c0,7.14-10.7,7.14-10.7,0C235.01,511.95,245.71,511.95,245.71,519.09"/>
<path class="st0" d="M264.99,519.09c0,7.14-10.7,7.14-10.7,0C254.29,511.95,264.99,511.95,264.99,519.09"/>
<path class="st0" d="M130.13,538.37c0,7.14-10.7,7.14-10.7,0C119.42,531.23,130.13,531.23,130.13,538.37"/>
<path class="st0" d="M149.4,538.37c0,7.14-10.7,7.14-10.7,0C138.7,531.23,149.4,531.23,149.4,538.37"/>
<path class="st0" d="M168.67,538.37c0,7.14-10.7,7.14-10.7,0C157.96,531.23,168.67,531.23,168.67,538.37"/>
<path class="st0" d="M187.93,538.37c0,7.14-10.7,7.14-10.7,0C177.23,531.23,187.93,531.23,187.93,538.37"/>
<path class="st0" d="M207.2,538.37c0,7.14-10.7,7.14-10.7,0C196.49,531.23,207.2,531.23,207.2,538.37"/>
<path class="st0" d="M226.46,538.37c0,7.14-10.7,7.14-10.7,0C215.76,531.23,226.46,531.23,226.46,538.37"/>
<path class="st0" d="M245.71,538.37c0,7.14-10.7,7.14-10.7,0C235.01,531.23,245.71,531.23,245.71,538.37"/>
<path class="st0" d="M264.99,538.37c0,7.14-10.7,7.14-10.7,0C254.29,531.23,264.99,531.23,264.99,538.37"/>
<path class="st0" d="M110.87,557.63c0,7.14-10.7,7.14-10.7,0S110.87,550.5,110.87,557.63"/>
<path class="st0" d="M130.13,557.63c0,7.14-10.7,7.14-10.7,0S130.13,550.5,130.13,557.63"/>
<path class="st0" d="M149.4,557.63c0,7.14-10.7,7.14-10.7,0S149.4,550.5,149.4,557.63"/>
<path class="st0" d="M168.67,557.63c0,7.14-10.7,7.14-10.7,0S168.67,550.5,168.67,557.63"/>
<path class="st0" d="M187.93,557.63c0,7.14-10.7,7.14-10.7,0S187.93,550.5,187.93,557.63"/>
<path class="st0" d="M207.2,557.63c0,7.14-10.7,7.14-10.7,0S207.2,550.5,207.2,557.63"/>
<path class="st0" d="M226.46,557.63c0,7.14-10.7,7.14-10.7,0S226.46,550.5,226.46,557.63"/>
<path class="st0" d="M245.71,557.63c0,7.14-10.7,7.14-10.7,0S245.71,550.5,245.71,557.63"/>
<path class="st0" d="M110.87,576.9c0,7.14-10.7,7.14-10.7,0C100.17,569.76,110.87,569.76,110.87,576.9"/>
<path class="st0" d="M130.13,576.9c0,7.14-10.7,7.14-10.7,0C119.42,569.76,130.13,569.76,130.13,576.9"/>
<path class="st0" d="M149.4,576.9c0,7.14-10.7,7.14-10.7,0C138.7,569.76,149.4,569.76,149.4,576.9"/>
<path class="st0" d="M168.67,576.9c0,7.14-10.7,7.14-10.7,0C157.96,569.76,168.67,569.76,168.67,576.9"/>
<path class="st0" d="M187.93,576.9c0,7.14-10.7,7.14-10.7,0C177.23,569.76,187.93,569.76,187.93,576.9"/>
<path class="st0" d="M207.2,576.9c0,7.14-10.7,7.14-10.7,0C196.49,569.76,207.2,569.76,207.2,576.9"/>
<path class="st0" d="M226.46,576.9c0,7.14-10.7,7.14-10.7,0C215.76,569.76,226.46,569.76,226.46,576.9"/>
<path class="st0" d="M245.71,576.9c0,7.14-10.7,7.14-10.7,0C235.01,569.76,245.71,569.76,245.71,576.9"/>
<path class="st0" d="M149.4,596.16c0,7.14-10.7,7.14-10.7,0C138.7,589.03,149.4,589.03,149.4,596.16"/>
<path class="st0" d="M168.67,596.16c0,7.14-10.7,7.14-10.7,0C157.96,589.03,168.67,589.03,168.67,596.16"/>
<path class="st0" d="M187.93,596.16c0,7.14-10.7,7.14-10.7,0C177.23,589.03,187.93,589.03,187.93,596.16"/>
<path class="st0" d="M207.2,596.16c0,7.14-10.7,7.14-10.7,0C196.49,589.03,207.2,589.03,207.2,596.16"/>
<path class="st0" d="M226.46,596.16c0,7.14-10.7,7.14-10.7,0C215.76,589.03,226.46,589.03,226.46,596.16"/>
<path class="st0" d="M207.2,615.43c0,7.14-10.7,7.14-10.7,0C196.49,608.29,207.2,608.29,207.2,615.43"/>
<path class="st0" d="M149.4,634.7c0,7.14-10.7,7.14-10.7,0S149.4,627.57,149.4,634.7"/>
<path class="st0" d="M168.67,634.7c0,7.14-10.7,7.14-10.7,0S168.67,627.57,168.67,634.7"/>
</svg>
